# xmcd CD database file
#
# Track frame offsets:
#	150
#	33766
#	50012
#	77269
#	95786
#	111579
#	133457
#	149875
#	172975
#	194777
#	210758
#	235334
#	260624
#
# Disc length: 3787 seconds
#
# Revision: 0
# Processed by: cddbd v1.5.1PL0 Copyright (c) Steve Scherf et al.
# Submitted via: CDex 1.51
#
DISCID=c60ec90d
DTITLE=Karen Lane - Once in a Lifetime
DYEAR=2002
DGENRE=Jazz
TTITLE0=On Green Dolphin Street
TTITLE1=Devil May Care
TTITLE2=The Good Life
TTITLE3=Lullaby of Birdland
TTITLE4=Sometimes I'm Happy
TTITLE5=Love is in Bloom
TTITLE6=I Hadn't Anyone 'Til You
TTITLE7=Memory Serves
TTITLE8=Here's to Life
TTITLE9=This is it
TTITLE10=Till Death Us Do Part
TTITLE11=Love Me or Leave Me
TTITLE12=Once in a Lifetime
EXTD=YEAR: 2002
EXTT0=
EXTT1=
EXTT2=
EXTT3=
EXTT4=
EXTT5=
EXTT6=
EXTT7=
EXTT8=
EXTT9=
EXTT10=
EXTT11=
EXTT12=
PLAYORDER=
